<svg width="420" height="250" viewBox="0 0 420 250" fill="none" xmlns="http://www.w3.org/2000/svg" role="img" aria-labelledby="title desc">
  <title id="title">BackOffice ledger illustration</title>
  <desc id="desc">A professional illustration of a ledger, office building and financial documents.</desc>
  <defs>
    <linearGradient id="bg" x1="30" y1="20" x2="390" y2="230" gradientUnits="userSpaceOnUse">
      <stop stop-color="#EAF4FB"/>
      <stop offset="1" stop-color="#F6FAFD"/>
    </linearGradient>
    <linearGradient id="paper" x1="80" y1="55" x2="270" y2="215" gradientUnits="userSpaceOnUse">
      <stop stop-color="#FFFFFF"/>
      <stop offset="1" stop-color="#E8F1F7"/>
    </linearGradient>
  </defs>
  <rect x="8" y="8" width="404" height="234" rx="28" fill="url(#bg)"/>
  <circle cx="350" cy="52" r="31" fill="#CFE8F8"/>
  <rect x="55" y="45" width="190" height="151" rx="15" transform="rotate(-7 55 45)" fill="#0B2545" opacity=".12"/>
  <rect x="67" y="37" width="190" height="151" rx="15" transform="rotate(-7 67 37)" fill="url(#paper)" stroke="#A7C1D9" stroke-width="3"/>
  <path d="M104 75L215 61M101 98L204 86M98 122L190 111" stroke="#6B8AA9" stroke-width="8" stroke-linecap="round"/>
  <path d="M98 148L151 141" stroke="#1F7BB3" stroke-width="10" stroke-linecap="round"/>
  <path d="M171 143L197 139" stroke="#16A34A" stroke-width="10" stroke-linecap="round"/>
  <path d="M285 112H376V203H285V112Z" fill="#0B2545"/>
  <path d="M270 112L330 75L390 112H270Z" fill="#1F7BB3"/>
  <path d="M302 137V203M330 137V203M358 137V203" stroke="#EAF4FB" stroke-width="10"/>
  <path d="M275 203H385" stroke="#0B2545" stroke-width="12" stroke-linecap="round"/>
  <circle cx="348" cy="52" r="12" fill="#16A34A"/>
  <path d="M342 52L347 57L356 46" stroke="white" stroke-width="4" stroke-linecap="round" stroke-linejoin="round"/>
</svg>
